<?xml version="1.0" encoding="UTF-8" standalone="no"?>
<!-- Created with Inkscape (http://www.inkscape.org/) -->
<svg id="svg7542" xmlns:rdf="http://www.w3.org/1999/02/22-rdf-syntax-ns#" xmlns="http://www.w3.org/2000/svg" height="128" width="128" version="1.1" xmlns:cc="http://creativecommons.org/ns#" xmlns:xlink="http://www.w3.org/1999/xlink" xmlns:dc="http://purl.org/dc/elements/1.1/">
 <metadata id="metadata7956">
  <rdf:RDF>
   <cc:Work rdf:about="">
    <dc:format>image/svg+xml</dc:format>
    <dc:type rdf:resource="http://purl.org/dc/dcmitype/StillImage"/>
    <dc:title/>
   </cc:Work>
  </rdf:RDF>
 </metadata>
 <defs id="defs7544">
  <filter id="filter6181" color-interpolation-filters="sRGB">
   <feGaussianBlur id="feGaussianBlur6183" stdDeviation="1.6001681"/>
  </filter>
  <linearGradient id="linearGradient3487">
   <stop id="stop3489" style="stop-color:#e6cde2" offset="0"/>
   <stop id="stop3491" style="stop-color:#e6cde2;stop-opacity:0" offset="1"/>
  </linearGradient>
  <linearGradient id="linearGradient3495">
   <stop id="stop3497" style="stop-color:#c1cbe4" offset="0"/>
   <stop id="stop3499" style="stop-color:#c1cbe4;stop-opacity:0" offset="1"/>
  </linearGradient>
  <linearGradient id="linearGradient3503">
   <stop id="stop3505" style="stop-color:#c4ebdd" offset="0"/>
   <stop id="stop3507" style="stop-color:#c4ebdd;stop-opacity:0" offset="1"/>
  </linearGradient>
  <linearGradient id="linearGradient3511">
   <stop id="stop3513" style="stop-color:#ebeec7" offset="0"/>
   <stop id="stop3515" style="stop-color:#ebeec7;stop-opacity:0" offset="1"/>
  </linearGradient>
  <linearGradient id="linearGradient3519">
   <stop id="stop3521" style="stop-color:#fcd9cd" offset="0"/>
   <stop id="stop3523" style="stop-color:#fcd9cd;stop-opacity:0" offset="1"/>
  </linearGradient>
  <linearGradient id="linearGradient6036">
   <stop id="stop6038" style="stop-color:#fff" offset="0"/>
   <stop id="stop6040" style="stop-color:#fff;stop-opacity:0" offset="1"/>
  </linearGradient>
  <linearGradient id="linearGradient8471" y2="43" gradientUnits="userSpaceOnUse" x2="24" gradientTransform="matrix(2.7838 0 0 2.7838 -2.8108 -2.8108)" y1="5" x1="24">
   <stop id="stop3926" style="stop-color:#fff" offset="0"/>
   <stop id="stop3928" style="stop-color:#fff;stop-opacity:.23529" offset=".063165"/>
   <stop id="stop3930" style="stop-color:#fff;stop-opacity:.15686" offset=".95056"/>
   <stop id="stop3932" style="stop-color:#fff;stop-opacity:.39216" offset="1"/>
  </linearGradient>
  <radialGradient id="radialGradient8487" gradientUnits="userSpaceOnUse" cy="8.4498" cx="7.4957" gradientTransform="matrix(5.2307e-8 6.2919 -6.6561 -1.1592e-7 120.24 -34.094)" r="20">
   <stop id="stop41892" style="stop-color:#dbdbdb" offset="0"/>
   <stop id="stop41894" style="stop-color:#b5b5b5" offset=".26238"/>
   <stop id="stop41896" style="stop-color:#848484" offset=".66094"/>
   <stop id="stop41898" style="stop-color:#585858" offset="1"/>
  </radialGradient>
  <linearGradient id="linearGradient8489" y2="3.899" gradientUnits="userSpaceOnUse" x2="24" gradientTransform="matrix(2.6923 0 0 2.6923 -.61538 -.61538)" y1="44" x1="24">
   <stop id="stop41902" style="stop-color:#484848" offset="0"/>
   <stop id="stop41904" style="stop-color:#767676" offset="1"/>
  </linearGradient>
  <linearGradient id="linearGradient9415" y2="9.8622" xlink:href="#linearGradient3487" spreadMethod="reflect" gradientUnits="userSpaceOnUse" x2="24.274" y1="10.775" x1="20.58"/>
  <linearGradient id="linearGradient9417" y2="9.7956" xlink:href="#linearGradient3495" spreadMethod="reflect" gradientUnits="userSpaceOnUse" x2="21.047" y1="11.2" x1="17.495"/>
  <linearGradient id="linearGradient9419" y2="10.732" xlink:href="#linearGradient3503" spreadMethod="reflect" gradientUnits="userSpaceOnUse" x2="16.994" y1="13.046" x1="14.085"/>
  <linearGradient id="linearGradient9421" y2="13.462" xlink:href="#linearGradient3511" spreadMethod="reflect" gradientUnits="userSpaceOnUse" x2="14.609" y1="16.188" x1="12.372"/>
  <linearGradient id="linearGradient9423" y2="20.613" xlink:href="#linearGradient3519" spreadMethod="reflect" gradientUnits="userSpaceOnUse" x2="9.7298" y1="17.886" x1="10.609"/>
  <linearGradient id="linearGradient9452" y2="199.71" gradientUnits="userSpaceOnUse" x2="28.479" gradientTransform="matrix(.60138 0 0 .60231 66.291 -39.635)" y1="115.94" x1="28.479">
   <stop id="stop3792" style="stop-color:#fff" offset="0"/>
   <stop id="stop3794" style="stop-color:#fff;stop-opacity:.34483" offset="1"/>
  </linearGradient>
  <radialGradient id="radialGradient9455" fx="14.688" fy="37.456" gradientUnits="userSpaceOnUse" cy="41.059" cx="17.059" gradientTransform="matrix(1.9278 -.88987 .42650 1.7058 23.129 35.267)" r="5.7385">
   <stop id="stop3812" style="stop-color:#e4fc58" offset="0"/>
   <stop id="stop3814" style="stop-color:#a3cb27" offset=".66094"/>
   <stop id="stop3816" style="stop-color:#74a111" offset="1"/>
  </radialGradient>
  <radialGradient id="radialGradient9458" gradientUnits="userSpaceOnUse" cy="16.98" cx="35.294" gradientTransform="matrix(2.3908 -2.5064e-8 5.1112e-8 5.3539 4.8989 -50.699)" r="12.03">
   <stop id="stop3798" style="stop-color:#e4fc58" offset="0"/>
   <stop id="stop3800" style="stop-color:#a3cb27" offset=".32453"/>
   <stop id="stop3802" style="stop-color:#74a111" offset="1"/>
  </radialGradient>
  <linearGradient id="linearGradient9460" y2="4.0338" gradientUnits="userSpaceOnUse" x2="26.717" gradientTransform="matrix(1.6946 0 0 1.7758 29.47 20.701)" y1="46.002" x1="26.717">
   <stop id="stop3806" style="stop-color:#547411" offset="0"/>
   <stop id="stop3808" style="stop-color:#8aaf19" offset="1"/>
  </linearGradient>
  <radialGradient id="radialGradient9463" gradientUnits="userSpaceOnUse" cy="4.625" cx="62.625" gradientTransform="matrix(1.7754 0 0 .83422 -44.275 91.778)" r="10.625">
   <stop id="stop8840" offset="0"/>
   <stop id="stop8842" style="stop-opacity:0" offset="1"/>
  </radialGradient>
  <linearGradient id="linearGradient9466" y2="45.962" xlink:href="#linearGradient6036" gradientUnits="userSpaceOnUse" x2="18.203" gradientTransform="matrix(.73241 0 0 -.73241 46.168 80.31)" y1="4.0378" x1="18.776"/>
  <linearGradient id="linearGradient9469" y2="45.176" gradientUnits="userSpaceOnUse" x2="20.019" gradientTransform="matrix(1.7805 0 0 1.7805 21.268 19.268)" y1="3" x1="20.019">
   <stop id="stop3774" style="stop-color:#b4b4b4" offset="0"/>
   <stop id="stop3776" style="stop-color:#969696" offset="1"/>
  </linearGradient>
  <linearGradient id="linearGradient9472" y2="54.698" xlink:href="#linearGradient6036" gradientUnits="userSpaceOnUse" x2="48.799" gradientTransform="matrix(1.7931 0 0 1.7931 20.342 17.171)" y1="3.61" x1="10.502"/>
  <linearGradient id="linearGradient9487" y2="32.509" gradientUnits="userSpaceOnUse" x2="21.448" gradientTransform="matrix(1.6875 0 0 1.6875 23.5 21.5)" y1="15.5" x1="21.448">
   <stop id="stop3430" style="stop-color:#aaa" offset="0"/>
   <stop id="stop3432" style="stop-color:#d4d4d4" offset="1"/>
  </linearGradient>
  <linearGradient id="linearGradient9491" y2="14.203" gradientUnits="userSpaceOnUse" x2="35.391" gradientTransform="matrix(0 2.0766 -2.0766 0 111.97 12.115)" y1="32.416" x1="12.274">
   <stop id="stop3265" style="stop-color:#dededb" offset="0"/>
   <stop id="stop3267" style="stop-color:#e6e6e6" offset=".5"/>
   <stop id="stop3269" style="stop-color:#d2d2d2" offset="1"/>
  </linearGradient>
  <radialGradient id="radialGradient9494" gradientUnits="userSpaceOnUse" cy="41.636" cx="23.335" gradientTransform="matrix(1.7236 0 0 .50919 23.781 68.231)" r="22.627">
   <stop id="stop23421" offset="0"/>
   <stop id="stop23423" style="stop-opacity:0" offset="1"/>
  </radialGradient>
 </defs>
 <rect id="rect5505-2" style="opacity:.4;color:#000000;filter:url(#filter6181)" rx="3.072" ry="3.1624" transform="matrix(1.7299 0 0 1.6462 1.7239 20.643)" width="64" y="-3.84" x="4" height="64"/>
 <rect id="rect5505" style="stroke-linejoin:round;color:#000000;stroke:url(#linearGradient8489);stroke-linecap:round;fill:url(#radialGradient8487)" rx="5" ry="5" height="105" width="105" y="11.5" x="11.5"/>
 <rect id="rect6741" style="opacity:.5;stroke-linejoin:round;stroke:url(#linearGradient8471);stroke-linecap:round;fill:none" rx="4" ry="4" height="103" width="103" y="12.5" x="12.5"/>
 <path id="path23417" style="opacity:.3;fill-rule:evenodd;fill:url(#radialGradient9494)" d="m103 89.432c0.002 6.3637-17.459 11.523-39 11.523s-39.002-5.1591-39-11.523c-0.002-6.3636 17.459-11.523 39-11.523s39.002 5.1591 39 11.523z"/>
 <path id="path2781" style="fill:url(#linearGradient9491)" d="m100.34 61.955c0-20.143-16.197-36.341-36.341-36.341-20.143 0-36.341 16.197-36.341 36.341-0.000004 20.143 16.197 36.341 36.341 36.341 20.143-0.000004 36.341-16.197 36.341-36.341zm-22.159 0c0 8.1953-5.9865 14.182-14.182 14.182-8.1953 0-14.182-5.9865-14.182-14.182 0-8.1953 5.9865-14.182 14.182-14.182 8.1953 0 14.182 5.9865 14.182 14.182z"/>
 <path id="path2474" style="opacity:.5;fill:#fff" d="m64 47.773c-7.8284 0-14.182 6.3535-14.182 14.182 0 7.8284 6.3535 14.182 14.182 14.182 7.8284 0 14.182-6.3535 14.182-14.182 0-7.8284-6.3535-14.182-14.182-14.182zm0 7.0909c3.9142 0 7.0909 3.1767 7.0909 7.0909s-3.1767 7.0909-7.0909 7.0909-7.0909-3.1767-7.0909-7.0909 3.1767-7.0909 7.0909-7.0909z"/>
 <path id="path3418" style="stroke-linejoin:round;stroke:url(#linearGradient9487);fill:none" d="m64 48.5c-7.452 0-13.5 6.048-13.5 13.5s6.048 13.5 13.5 13.5 13.5-6.048 13.5-13.5-6.048-13.5-13.5-13.5zm0 6.75c3.726 0 6.75 3.024 6.75 6.75s-3.024 6.75-6.75 6.75-6.75-3.024-6.75-6.75 3.024-6.75 6.75-6.75z"/>
 <g id="g3527" transform="matrix(1.7727 0 0 1.7727 21.455 19.409)">
  <path id="path3296" style="opacity:.8;fill:url(#linearGradient9415)" d="m24 3.5c-2.9758 0-5.7974 0.62082-8.3438 1.75l4.969 11.094c1.035-0.459 2.17-0.719 3.375-0.719 0.03206 0 0.06178-0.00036 0.09375 0v-12.125c-0.032-0.0001-0.063 0-0.094 0z" transform="matrix(.99960 .028243 -.028243 .99960 .69241 -.67083)"/>
  <path id="path3308" style="opacity:.8;fill:url(#linearGradient9417)" d="m19.597 3.9975c-2.9067 0.63758-5.5298 1.8485-7.775 3.4971l7.2303 9.7715c0.91311-0.66976 1.9659-1.1671 3.1426-1.4252 0.03132-0.0069 0.06026-0.01359 0.09157-0.02009l-2.597-11.844c-0.03058 0.00656-0.061 0.013379-0.09157 0.020086l-0.000003 3e-7z"/>
  <path id="path3310" style="opacity:.8;fill:url(#linearGradient9419)" d="m14.558 5.8449c-2.642 1.3681-4.8627 3.2167-6.6048 5.3901l9.513 7.5673c0.70865-0.88326 1.5969-1.6361 2.6667-2.19 0.02847-0.01474 0.05469-0.02872 0.08325-0.0431l-5.575-10.767c-0.02783 0.014254-0.05545 0.02871-0.08325 0.043103l-0.000004-3e-7z"/>
  <path id="path3312" style="opacity:.8;fill:url(#linearGradient9421)" d="m10.169 8.9335c-2.1986 2.0055-3.8648 4.3655-4.985 6.9165l11.147 4.847c0.4559-1.0366 1.119-1.9937 2.009-2.8055 0.02369-0.02161 0.0454-0.0419 0.06926-0.06318l-8.171-8.9577c-0.0232 0.020972-0.04613 0.042084-0.06926 0.063182l-0.000001-3e-7z"/>
  <path id="path3314" style="opacity:.8;fill:url(#linearGradient9423)" d="m6.7812 12.969c-0.016978 0.02626-0.045621 0.06739-0.0625 0.09375-1.1482 1.7935-1.9617 3.6813-2.5 5.625l11.75 3.125c0.215-0.764 0.518-1.515 0.969-2.219 0.017-0.027 0.044-0.067 0.062-0.094l-10.219-6.531z"/>
 </g>
 <g id="g3642" style="opacity:.8" transform="matrix(-1.7727 0 0 -1.7727 106.55 104.5)">
  <path id="path3644" style="opacity:.8;fill:url(#linearGradient9415)" d="m24 3.5c-2.9758 0-5.7974 0.62082-8.3438 1.75l4.969 11.094c1.035-0.459 2.17-0.719 3.375-0.719 0.03206 0 0.06178-0.00036 0.09375 0v-12.125c-0.032-0.0001-0.063 0-0.094 0z" transform="matrix(.99960 .028243 -.028243 .99960 .69241 -.67083)"/>
  <path id="path3646" style="opacity:.8;fill:url(#linearGradient9417)" d="m19.597 3.9975c-2.9067 0.63758-5.5298 1.8485-7.775 3.4971l7.2303 9.7715c0.91311-0.66976 1.9659-1.1671 3.1426-1.4252 0.03132-0.0069 0.06026-0.01359 0.09157-0.02009l-2.597-11.844c-0.03058 0.00656-0.061 0.013379-0.09157 0.020086l-0.000003 3e-7z"/>
  <path id="path3648" style="opacity:.8;fill:url(#linearGradient9419)" d="m14.558 5.8449c-2.642 1.3681-4.8627 3.2167-6.6048 5.3901l9.513 7.5673c0.70865-0.88326 1.5969-1.6361 2.6667-2.19 0.02847-0.01474 0.05469-0.02872 0.08325-0.0431l-5.575-10.767c-0.02783 0.014254-0.05545 0.02871-0.08325 0.043103l-0.000004-3e-7z"/>
  <path id="path3650" style="opacity:.8;fill:url(#linearGradient9421)" d="m10.169 8.9335c-2.1986 2.0055-3.8648 4.3655-4.985 6.9165l11.147 4.847c0.4559-1.0366 1.119-1.9937 2.009-2.8055 0.02369-0.02161 0.0454-0.0419 0.06926-0.06318l-8.171-8.9577c-0.0232 0.020972-0.04613 0.042084-0.06926 0.063182l-0.000001-3e-7z"/>
  <path id="path3652" style="opacity:.8;fill:url(#linearGradient9423)" d="m6.7812 12.969c-0.016978 0.02626-0.045621 0.06739-0.0625 0.09375-1.1482 1.7935-1.9617 3.6813-2.5 5.625l11.75 3.125c0.215-0.764 0.518-1.515 0.969-2.219 0.017-0.027 0.044-0.067 0.062-0.094l-10.219-6.531z"/>
 </g>
 <path id="path2787" style="opacity:.5;stroke:url(#linearGradient9472);fill:none" d="m64 26.5c-19.677 0-35.5 15.823-35.5 35.5s15.823 35.5 35.5 35.5 35.5-15.823 35.5-35.5c0-10.708-4.6859-20.275-12.129-26.771-6.234-5.4412-14.402-8.7285-23.371-8.7285z"/>
 <path id="path3287" style="stroke:url(#linearGradient9469);fill:none" d="m64 25.5c-20.232 0-36.5 16.268-36.5 36.5s16.268 36.5 36.5 36.5 36.5-16.268 36.5-36.5-16.268-36.5-36.5-36.5z"/>
 <path id="path3281" style="opacity:.8;stroke:url(#linearGradient9466);fill:none" d="m64 76.5c-8.037 0-14.5-6.463-14.5-14.5s6.463-14.5 14.5-14.5c8.0371 0 14.5 6.4629 14.5 14.5 0 8.037-6.463 14.5-14.5 14.5z"/>
 <path id="path2598" style="opacity:.15;fill-rule:evenodd;fill:url(#radialGradient9463)" d="m85.773 95.636c0 4.8953-8.4455 8.8636-18.864 8.8636s-18.864-3.9684-18.864-8.8636c0-4.8953 8.4455-8.8636 18.864-8.8636s18.864 3.9684 18.864 8.8636z"/>
 <path id="path2588" style="stroke-linejoin:round;stroke:url(#linearGradient9460);stroke-linecap:round;fill:url(#radialGradient9458)" d="m84.545 49.759v37.138c0.72341 7.3341-5.1499 14.203-11.906 14.566-4.9842 0.49352-10.463-3.9718-10.124-9.3607 0.06452-8.3917 9.4013-14.569 16.946-12.804v-48.407c0-1.6723 4.556-2.0272 4.7483 0 0.1792 1.8891 1.3586 8.8376 8.9216 16.861 7.4261 7.8785 9.6441 22.782-0.39947 35.024 5.3423-14.21 5.7699-24.705-8.1866-33.017z"/>
 <path id="path2596" style="fill:url(#radialGradient9455)" d="m73.526 100.82c-5.871 1.09-10.526-2.924-10.526-8.831 0-5.906 5.126-11.58 10.997-12.672s10.003 0.534 10.003 6.44c-0.362 10.939-4.923 13.068-10.474 15.063z"/>
 <path id="path2594" style="opacity:.4;fill:url(#linearGradient9452);fill-rule:evenodd" d="m81 32.222v48.434c-0.43791-0.37257-0.11043-0.76-0.98873-0.98251l-0.000017-0.27942 0.000017-48.755s2.9766-0.86851 3.511-0.15601c0 0 0.61272 6.6177 5.4955 13.585 0 0 10.759 8.5714 10.039 20.964-0.514-1.402 2.373-6.398-8.987-17.887-7.758-7.847-9.07-14.923-9.07-14.923z"/>
</svg>
