<?xml version="1.0" encoding="UTF-8" standalone="no"?>
<!-- Created with Inkscape (http://www.inkscape.org/) -->

<svg
   inkscape:export-ydpi="96"
   inkscape:export-xdpi="96"
   inkscape:export-filename="Template.png"
   width="128"
   height="128"
   id="svg11300"
   sodipodi:version="0.32"
   inkscape:version="1.4.2 (ebf0e940d0, 2025-05-08)"
   sodipodi:docname="new-logo-purple-5.svg"
   inkscape:output_extension="org.inkscape.output.svg.inkscape"
   version="1.0"
   style="display:inline;enable-background:new"
   viewBox="0 0 128 128"
   xml:space="preserve"
   xmlns:inkscape="http://www.inkscape.org/namespaces/inkscape"
   xmlns:sodipodi="http://sodipodi.sourceforge.net/DTD/sodipodi-0.dtd"
   xmlns:xlink="http://www.w3.org/1999/xlink"
   xmlns="http://www.w3.org/2000/svg"
   xmlns:svg="http://www.w3.org/2000/svg"
   xmlns:rdf="http://www.w3.org/1999/02/22-rdf-syntax-ns#"
   xmlns:cc="http://creativecommons.org/ns#"
   xmlns:dc="http://purl.org/dc/elements/1.1/"><title
     id="title4162">Adwaita Icon Template</title><defs
     id="defs3"><linearGradient
       id="linearGradient11"
       inkscape:collect="always"><stop
         style="stop-color:#813d9c;stop-opacity:1;"
         offset="0"
         id="stop11" /><stop
         style="stop-color:#813d9c;stop-opacity:0;"
         offset="1"
         id="stop12" /></linearGradient><linearGradient
       id="linearGradient9"
       inkscape:collect="always"><stop
         style="stop-color:#006d26;stop-opacity:1;"
         offset="0"
         id="stop9" /><stop
         style="stop-color:#6eba8b;stop-opacity:1;"
         offset="1"
         id="stop10" /></linearGradient><linearGradient
       y2="236"
       x2="96"
       y1="236"
       x1="32"
       gradientTransform="translate(604.81684,170.58641)"
       gradientUnits="userSpaceOnUse"
       id="linearGradient1099"
       xlink:href="#linearGradient1036" /><linearGradient
       id="linearGradient1036"><stop
         id="stop1032"
         offset="0"
         style="stop-color:#d5d3cf;stop-opacity:1;" /><stop
         id="stop1034"
         offset="1"
         style="stop-color:#f6f5f4;stop-opacity:1" /></linearGradient><radialGradient
       r="32"
       fy="-76"
       fx="-244"
       cy="-76"
       cx="-244"
       gradientTransform="matrix(0.88333331,0,0,0.88333331,-460.35018,463.11973)"
       gradientUnits="userSpaceOnUse"
       id="radialGradient1103"
       xlink:href="#linearGradient1069" /><linearGradient
       id="linearGradient1069"><stop
         id="stop1065"
         offset="0"
         style="stop-color:#d5d3cf;stop-opacity:1" /><stop
         id="stop1067-1"
         offset="1"
         style="stop-color:#949390;stop-opacity:1" /></linearGradient><linearGradient
       gradientUnits="userSpaceOnUse"
       y2="232"
       x2="64"
       y1="262.5"
       x1="64"
       id="linearGradient1027"
       xlink:href="#linearGradient1025"
       gradientTransform="translate(-470.5864,432.81685)" /><linearGradient
       id="linearGradient1025"><stop
         id="stop1021"
         offset="0"
         style="stop-color:#9a9996;stop-opacity:1" /><stop
         id="stop1023"
         offset="1"
         style="stop-color:#77767b;stop-opacity:1" /></linearGradient><inkscape:path-effect
       effect="spiro"
       id="path-effect35304-9"
       is_visible="true" /><clipPath
       clipPathUnits="userSpaceOnUse"
       id="clipPath1609-7"><path
         sodipodi:nodetypes="cccccc"
         inkscape:connector-curvature="0"
         id="path1611-5"
         d="m 252,116 28,-28 v -8 h -36 v 36 z"
         style="fill:#e74747;stroke:none;stroke-width:0.25px;stroke-linecap:butt;stroke-linejoin:miter;stroke-opacity:1" /></clipPath><linearGradient
       id="linearGradient2651"
       x1="18.775999"
       x2="18.202999"
       y1="4.0377998"
       y2="45.962002"
       gradientTransform="matrix(1.086,0,0,1.086,151.559,189.85)"
       gradientUnits="userSpaceOnUse"
       xlink:href="#linearGradient6036" /><linearGradient
       id="linearGradient6036"><stop
         id="stop6038"
         style="stop-color:#fff"
         offset="0" /><stop
         id="stop6040"
         style="stop-color:#fff;stop-opacity:0"
         offset="1" /></linearGradient><linearGradient
       id="linearGradient2672"
       x1="20.58"
       x2="24.274"
       y1="10.775"
       y2="9.8621998"
       gradientUnits="userSpaceOnUse"
       spreadMethod="reflect"
       xlink:href="#linearGradient3487" /><linearGradient
       id="linearGradient3487"><stop
         id="stop3489"
         style="stop-color:#e6cde2"
         offset="0" /><stop
         id="stop3491"
         style="stop-color:#e6cde2;stop-opacity:0"
         offset="1" /></linearGradient><linearGradient
       id="linearGradient2674"
       x1="17.495001"
       x2="21.047001"
       y1="11.2"
       y2="9.7955999"
       gradientUnits="userSpaceOnUse"
       spreadMethod="reflect"
       xlink:href="#linearGradient3495" /><linearGradient
       id="linearGradient3495"><stop
         id="stop3497"
         style="stop-color:#c1cbe4"
         offset="0" /><stop
         id="stop3499"
         style="stop-color:#c1cbe4;stop-opacity:0"
         offset="1" /></linearGradient><linearGradient
       id="linearGradient2676"
       x1="14.085"
       x2="16.993999"
       y1="13.046"
       y2="10.732"
       gradientUnits="userSpaceOnUse"
       spreadMethod="reflect"
       xlink:href="#linearGradient3503" /><linearGradient
       id="linearGradient3503"><stop
         id="stop3505"
         style="stop-color:#c4ebdd"
         offset="0" /><stop
         id="stop3507"
         style="stop-color:#c4ebdd;stop-opacity:0"
         offset="1" /></linearGradient><linearGradient
       id="linearGradient2678"
       x1="12.372"
       x2="14.609"
       y1="16.188"
       y2="13.462"
       gradientUnits="userSpaceOnUse"
       spreadMethod="reflect"
       xlink:href="#linearGradient3511" /><linearGradient
       id="linearGradient3511"><stop
         id="stop3513"
         style="stop-color:#ebeec7"
         offset="0" /><stop
         id="stop3515"
         style="stop-color:#ebeec7;stop-opacity:0"
         offset="1" /></linearGradient><linearGradient
       id="linearGradient2680"
       x1="10.609"
       x2="9.7298002"
       y1="17.886"
       y2="20.613001"
       gradientUnits="userSpaceOnUse"
       spreadMethod="reflect"
       xlink:href="#linearGradient3519" /><linearGradient
       id="linearGradient3519"><stop
         id="stop3521"
         style="stop-color:#fcd9cd"
         offset="0" /><stop
         id="stop3523"
         style="stop-color:#fcd9cd;stop-opacity:0"
         offset="1" /></linearGradient><linearGradient
       id="linearGradient2642"
       x1="10.502"
       x2="48.799"
       y1="3.6099999"
       y2="54.698002"
       gradientTransform="matrix(2.7529,0,0,2.7529,110.9762,148.1786)"
       gradientUnits="userSpaceOnUse"
       xlink:href="#linearGradient6036" /><linearGradient
       id="linearGradient2654"
       x1="21.448"
       x2="21.448"
       y1="15.5"
       y2="32.508999"
       gradientTransform="matrix(2.5381,0,0,2.5381,117.0854,156.0854)"
       gradientUnits="userSpaceOnUse"><stop
         id="stop3430"
         style="stop-color:#aaa"
         offset="0" /><stop
         id="stop3432"
         style="stop-color:#d4d4d4"
         offset="1" /></linearGradient><linearGradient
       id="linearGradient2658"
       x1="12.274"
       x2="35.390999"
       y1="32.416"
       y2="14.203"
       gradientTransform="matrix(0,3.1715,-3.1715,0,251.26,140.885)"
       gradientUnits="userSpaceOnUse"><stop
         id="stop3265"
         style="stop-color:#dedbde"
         offset="0" /><stop
         id="stop3267"
         style="stop-color:#e6e6e6"
         offset=".5" /><stop
         id="stop3269"
         style="stop-color:#d2d2d2"
         offset="1" /></linearGradient><linearGradient
       id="linearGradient2660"
       x1="-21.916"
       x2="-21.916"
       y1="3"
       y2="45.033001"
       gradientTransform="matrix(2.7073,0,0,2.7073,249.11,152.02441)"
       gradientUnits="userSpaceOnUse"><stop
         id="stop3774"
         style="stop-color:#b4b4b4"
         offset="0" /><stop
         id="stop3776"
         style="stop-color:#969696"
         offset="1" /></linearGradient><radialGradient
       id="radialGradient2584"
       cx="23.334999"
       cy="41.636002"
       r="22.627001"
       gradientTransform="matrix(2.6517,0,0,0.79542,116.125,225.882)"
       gradientUnits="userSpaceOnUse"><stop
         id="stop23421"
         offset="0" /><stop
         id="stop23423"
         style="stop-opacity:0"
         offset="1" /></radialGradient><linearGradient
       inkscape:collect="always"
       xlink:href="#linearGradient3487"
       id="linearGradient3"
       gradientUnits="userSpaceOnUse"
       x1="20.58"
       y1="10.775"
       x2="24.274"
       y2="9.8621998"
       spreadMethod="reflect" /><linearGradient
       inkscape:collect="always"
       xlink:href="#linearGradient3495"
       id="linearGradient4"
       gradientUnits="userSpaceOnUse"
       x1="17.495001"
       y1="11.2"
       x2="21.047001"
       y2="9.7955999"
       spreadMethod="reflect" /><linearGradient
       inkscape:collect="always"
       xlink:href="#linearGradient3503"
       id="linearGradient5"
       gradientUnits="userSpaceOnUse"
       x1="14.085"
       y1="13.046"
       x2="16.993999"
       y2="10.732"
       spreadMethod="reflect" /><linearGradient
       inkscape:collect="always"
       xlink:href="#linearGradient3511"
       id="linearGradient6"
       gradientUnits="userSpaceOnUse"
       x1="12.372"
       y1="16.188"
       x2="14.609"
       y2="13.462"
       spreadMethod="reflect" /><linearGradient
       inkscape:collect="always"
       xlink:href="#linearGradient3519"
       id="linearGradient7"
       gradientUnits="userSpaceOnUse"
       x1="10.609"
       y1="17.886"
       x2="9.7298002"
       y2="20.613001"
       spreadMethod="reflect" /><linearGradient
       inkscape:collect="always"
       xlink:href="#linearGradient9"
       id="linearGradient10"
       x1="20.316267"
       y1="234.54936"
       x2="97.863739"
       y2="220.87564"
       gradientUnits="userSpaceOnUse" /><linearGradient
       inkscape:collect="always"
       xlink:href="#linearGradient11"
       id="linearGradient12"
       x1="32.029675"
       y1="192.97011"
       x2="93.792801"
       y2="272.02332"
       gradientUnits="userSpaceOnUse" /></defs><sodipodi:namedview
     stroke="#ef2929"
     fill="#f57900"
     id="base"
     pagecolor="#ffffff"
     bordercolor="#666666"
     borderopacity="0.25490196"
     inkscape:pageopacity="0.0"
     inkscape:pageshadow="2"
     inkscape:zoom="2.1757814"
     inkscape:cx="43.202871"
     inkscape:cy="82.958704"
     inkscape:current-layer="g3"
     showgrid="false"
     inkscape:grid-bbox="true"
     inkscape:document-units="px"
     inkscape:showpageshadow="false"
     inkscape:window-width="1920"
     inkscape:window-height="967"
     inkscape:window-x="0"
     inkscape:window-y="0"
     width="400px"
     height="300px"
     inkscape:snap-nodes="true"
     inkscape:snap-bbox="true"
     objecttolerance="7"
     gridtolerance="12"
     guidetolerance="13"
     inkscape:window-maximized="1"
     inkscape:pagecheckerboard="false"
     showguides="false"
     inkscape:guide-bbox="true"
     inkscape:locked="false"
     inkscape:measure-start="0,0"
     inkscape:measure-end="0,0"
     inkscape:object-nodes="true"
     inkscape:bbox-nodes="true"
     inkscape:snap-global="true"
     inkscape:object-paths="true"
     inkscape:snap-intersection-paths="true"
     inkscape:snap-bbox-edge-midpoints="true"
     inkscape:snap-bbox-midpoints="true"
     showborder="false"
     inkscape:snap-center="true"
     inkscape:snap-object-midpoints="true"
     inkscape:snap-midpoints="true"
     inkscape:snap-smooth-nodes="true"
     inkscape:snap-text-baseline="true"
     inkscape:deskcolor="#d1d1d1"><inkscape:grid
       type="xygrid"
       id="grid5883"
       spacingx="2"
       spacingy="2"
       enabled="true"
       visible="true"
       empspacing="4"
       originx="0"
       originy="0"
       units="px" /><sodipodi:guide
       position="64,8"
       orientation="0,1"
       id="guide1073"
       inkscape:locked="false"
       inkscape:label=""
       inkscape:color="rgb(0,0,255)" /><sodipodi:guide
       position="12,64"
       orientation="1,0"
       id="guide1075"
       inkscape:locked="false"
       inkscape:label=""
       inkscape:color="rgb(0,0,255)" /><sodipodi:guide
       position="64,104"
       orientation="0,1"
       id="guide1099"
       inkscape:locked="false"
       inkscape:label=""
       inkscape:color="rgb(0,0,255)" /><sodipodi:guide
       position="64,128"
       orientation="0,1"
       id="guide993"
       inkscape:locked="false"
       inkscape:label=""
       inkscape:color="rgb(0,0,255)" /><sodipodi:guide
       position="104,64"
       orientation="1,0"
       id="guide995"
       inkscape:locked="false"
       inkscape:label=""
       inkscape:color="rgb(0,0,255)" /><sodipodi:guide
       position="9.2651362e-08,64"
       orientation="1,0"
       id="guide867"
       inkscape:locked="false"
       inkscape:label=""
       inkscape:color="rgb(0,0,255)" /><sodipodi:guide
       position="120,64"
       orientation="1,0"
       id="guide869"
       inkscape:locked="false"
       inkscape:label=""
       inkscape:color="rgb(0,0,255)" /><sodipodi:guide
       position="64,116"
       orientation="0,1"
       id="guide871"
       inkscape:locked="false"
       inkscape:label=""
       inkscape:color="rgb(0,0,255)" /><inkscape:grid
       type="xygrid"
       id="grid873"
       spacingx="1"
       spacingy="1"
       empspacing="8"
       color="#000000"
       opacity="0.49019608"
       empcolor="#000000"
       empopacity="0.08627451"
       dotted="true"
       originx="0"
       originy="0"
       units="px" /><sodipodi:guide
       position="24,64"
       orientation="1,0"
       id="guide877"
       inkscape:locked="false"
       inkscape:label=""
       inkscape:color="rgb(0,0,255)" /><sodipodi:guide
       position="116,64"
       orientation="1,0"
       id="guide879"
       inkscape:locked="false"
       inkscape:label=""
       inkscape:color="rgb(0,0,255)" /><sodipodi:guide
       position="64,120"
       orientation="0,1"
       id="guide881"
       inkscape:locked="false"
       inkscape:label=""
       inkscape:color="rgb(0,0,255)" /><sodipodi:guide
       position="64,12"
       orientation="0,1"
       id="guide883"
       inkscape:locked="false"
       inkscape:label=""
       inkscape:color="rgb(0,0,255)" /><sodipodi:guide
       position="8,64"
       orientation="1,0"
       id="guide885"
       inkscape:locked="false"
       inkscape:label=""
       inkscape:color="rgb(0,0,255)" /><sodipodi:guide
       position="128,64"
       orientation="1,0"
       id="guide887"
       inkscape:locked="false"
       inkscape:label=""
       inkscape:color="rgb(0,0,255)" /><sodipodi:guide
       position="64,0"
       orientation="0,1"
       id="guide897"
       inkscape:locked="false"
       inkscape:label=""
       inkscape:color="rgb(0,0,255)" /><sodipodi:guide
       position="64,24"
       orientation="0,1"
       id="guide899"
       inkscape:locked="false"
       inkscape:label=""
       inkscape:color="rgb(0,0,255)" /><sodipodi:guide
       position="256,256"
       orientation="-0.70710678,0.70710678"
       id="guide950"
       inkscape:locked="false"
       inkscape:label=""
       inkscape:color="rgb(0,0,255)" /><sodipodi:guide
       position="64,64"
       orientation="0.70710678,0.70710678"
       id="guide952"
       inkscape:locked="false"
       inkscape:label=""
       inkscape:color="rgb(0,0,255)" /></sodipodi:namedview><metadata
     id="metadata4"><rdf:RDF><cc:Work
         rdf:about=""><dc:format>image/svg+xml</dc:format><dc:type
           rdf:resource="http://purl.org/dc/dcmitype/StillImage" /><dc:creator><cc:Agent><dc:title>GNOME Design Team</dc:title></cc:Agent></dc:creator><dc:source /><cc:license
           rdf:resource="http://creativecommons.org/licenses/by-sa/4.0/" /><dc:title>Adwaita Icon Template</dc:title><dc:subject><rdf:Bag /></dc:subject><dc:date /><dc:rights><cc:Agent><dc:title /></cc:Agent></dc:rights><dc:publisher><cc:Agent><dc:title /></cc:Agent></dc:publisher><dc:identifier /><dc:relation /><dc:language /><dc:coverage /><dc:description /><dc:contributor><cc:Agent><dc:title /></cc:Agent></dc:contributor></cc:Work><cc:License
         rdf:about="http://creativecommons.org/licenses/by-sa/4.0/"><cc:permits
           rdf:resource="http://creativecommons.org/ns#Reproduction" /><cc:permits
           rdf:resource="http://creativecommons.org/ns#Distribution" /><cc:requires
           rdf:resource="http://creativecommons.org/ns#Notice" /><cc:requires
           rdf:resource="http://creativecommons.org/ns#Attribution" /><cc:permits
           rdf:resource="http://creativecommons.org/ns#DerivativeWorks" /><cc:requires
           rdf:resource="http://creativecommons.org/ns#ShareAlike" /></cc:License></rdf:RDF></metadata><g
     id="layer1"
     inkscape:label="App Icon"
     inkscape:groupmode="layer"
     style="display:inline"
     transform="translate(0,-172)"><g
       inkscape:groupmode="layer"
       id="layer2"
       inkscape:label="baseplate"
       style="display:none"
       sodipodi:insensitive="true"><g
         style="display:inline;fill:#000000;enable-background:new"
         transform="matrix(7.9911709,0,0,8.0036407,-167.7909,-4846.0776)"
         id="g12027"
         inkscape:export-xdpi="12"
         inkscape:export-ydpi="12" /><rect
         style="display:inline;overflow:visible;visibility:visible;fill:#f0f0f0;fill-opacity:1;fill-rule:nonzero;stroke:none;stroke-width:0.5;marker:none;enable-background:accumulate"
         id="rect13805"
         width="128"
         height="128"
         x="9.2651362e-08"
         y="172"
         inkscape:label="512x512" /><g
         id="g883"
         style="fill:none;fill-opacity:0.25098;stroke:#a579b3;stroke-opacity:1"
         transform="translate(-24,24)" /><g
         id="g900"
         style="fill:none;fill-opacity:0.25098;stroke:#a579b3;stroke-opacity:1"
         transform="translate(-24,24)" /><rect
         inkscape:label="512x512"
         y="172"
         x="160"
         height="16"
         width="16"
         id="rect859"
         style="display:inline;overflow:visible;visibility:visible;fill:#f0f0f0;fill-opacity:1;fill-rule:nonzero;stroke:none;stroke-width:0.5;marker:none;enable-background:accumulate" /><text
         xml:space="preserve"
         style="font-style:normal;font-variant:normal;font-weight:bold;font-stretch:normal;font-size:4px;line-height:125%;font-family:Cantarell;-inkscape-font-specification:'Cantarell, Bold';text-align:start;writing-mode:lr-tb;text-anchor:start;display:inline;fill:#000000;fill-opacity:1;stroke:none;stroke-width:0.332649;enable-background:new"
         x="0"
         y="164"
         id="text863"
         inkscape:label="icon-name"><tspan
           style="font-size:4px;stroke-width:0.332649"
           sodipodi:role="line"
           id="tspan861"
           x="0"
           y="164">Hicolor</tspan></text><text
         inkscape:label="icon-name"
         id="text867"
         y="164"
         x="160"
         style="font-style:normal;font-variant:normal;font-weight:bold;font-stretch:normal;font-size:4px;line-height:125%;font-family:Cantarell;-inkscape-font-specification:'Cantarell, Bold';text-align:start;writing-mode:lr-tb;text-anchor:start;display:inline;fill:#000000;fill-opacity:1;stroke:none;stroke-width:0.332649;enable-background:new"
         xml:space="preserve"><tspan
           y="164"
           x="160"
           id="tspan865"
           sodipodi:role="line"
           style="font-size:4px;stroke-width:0.332649">Symbolic</tspan></text></g><g
       inkscape:groupmode="layer"
       id="layer3"
       inkscape:label="hairlines"
       style="display:none"><circle
         cx="64.000031"
         cy="236"
         r="59.504131"
         id="circle2892"
         style="display:inline;opacity:0.1;vector-effect:none;fill:none;fill-opacity:1;stroke:#000000;stroke-width:0.99;stroke-linecap:butt;stroke-linejoin:miter;stroke-miterlimit:4;stroke-dasharray:0.99, 0.99;stroke-dashoffset:0;stroke-opacity:1;marker:none;marker-start:none;marker-mid:none;marker-end:none;paint-order:normal;enable-background:new" /><rect
         ry="8"
         rx="8"
         y="180.49496"
         x="20.495007"
         height="111.01005"
         width="87.009987"
         id="rect2894"
         style="display:inline;opacity:0.1;vector-effect:none;fill:none;fill-opacity:1;stroke:#000000;stroke-width:0.99;stroke-linecap:butt;stroke-linejoin:miter;stroke-miterlimit:4;stroke-dasharray:0.99, 0.99;stroke-dashoffset:0;stroke-opacity:1;marker:none;marker-start:none;marker-mid:none;marker-end:none;paint-order:normal;enable-background:new" /><rect
         ry="8"
         rx="8"
         y="184.49524"
         x="12.495266"
         height="103.00952"
         width="103.00952"
         id="rect2896"
         style="display:inline;opacity:0.1;vector-effect:none;fill:none;fill-opacity:1;stroke:#000000;stroke-width:0.99;stroke-linecap:butt;stroke-linejoin:miter;stroke-miterlimit:4;stroke-dasharray:0.99, 0.99;stroke-dashoffset:0;stroke-opacity:1;marker:none;marker-start:none;marker-mid:none;marker-end:none;paint-order:normal;enable-background:new" /><rect
         ry="8"
         rx="8"
         y="200.49496"
         x="8.4950066"
         height="87.010048"
         width="111.01004"
         id="rect2898"
         style="display:inline;opacity:0.1;vector-effect:none;fill:none;fill-opacity:1;stroke:#000000;stroke-width:0.99;stroke-linecap:butt;stroke-linejoin:miter;stroke-miterlimit:4;stroke-dasharray:0.99, 0.99;stroke-dashoffset:0;stroke-opacity:1;marker:none;marker-start:none;marker-mid:none;marker-end:none;paint-order:normal;enable-background:new" /><path
         inkscape:connector-curvature="0"
         id="path2900"
         d="M 2.6203015e-5,288.99999 H 128.00003"
         style="display:inline;fill:none;stroke:#62a0ea;stroke-width:2;stroke-linecap:butt;stroke-linejoin:miter;stroke-miterlimit:4;stroke-dasharray:none;stroke-opacity:1;enable-background:new" /></g><g
       id="g3"
       inkscape:label="songrec"
       style="display:inline;enable-background:new"><rect
         style="display:inline;fill:#613583;fill-opacity:1;stroke-width:1.17352;enable-background:new"
         id="rect1"
         width="100.85923"
         height="103.82567"
         x="12.997773"
         y="185.29475"
         inkscape:label="songrec_main_rect_shadow"
         ry="4.3148327" /><rect
         style="display:inline;fill:url(#linearGradient12);fill-opacity:1;stroke-width:1.11591;enable-background:new"
         id="rect1-6"
         width="100.31988"
         height="94.386971"
         x="12.751273"
         y="185.30318"
         inkscape:label="songrec_main_rect_top"
         ry="3.9225755" /><g
         id="g7"
         inkscape:label="songrec_cd_rom"
         transform="matrix(0.58053779,0,0,0.58053779,-41.255113,111.07009)"
         style="display:inline;enable-background:new"><path
           id="path23417"
           d="m 238,259 c 0.003,9.9408 -26.861,18 -60,18 -33.139,0 -60.003,-8.0592 -60,-18 -0.003,-9.9408 26.861,-18 60,-18 33.139,0 60.003,8.0591 60,18 z"
           style="opacity:0.3;fill:url(#radialGradient2584);fill-rule:evenodd" /><path
           id="path2781"
           d="m 233.5,217 c 0,-30.763 -24.737,-55.5 -55.5,-55.5 -30.763,0 -55.5,24.737 -55.5,55.5 -1e-5,30.763 24.737,55.5 55.5,55.5 30.763,-10e-6 55.5,-24.737 55.5,-55.5 z m -35.195,0 c 0,11.176 -8.9051,20.305 -20.305,20.305 -11.623,0 -20.305,-9.3546 -20.305,-20.305 0,-11.174 8.2342,-20.305 20.305,-20.305 12.071,0 20.305,9.3523 20.305,20.305 z"
           style="fill:url(#linearGradient2658);stroke:url(#linearGradient2660)" /><path
           id="path2474"
           d="m 178,196 c -11.592,0 -21,9.408 -21,21 0,11.592 9.408,21 21,21 11.592,0 21,-9.408 21,-21 0,-11.592 -9.408,-21 -21,-21 z m 0,10.5 c 5.796,0 10.5,4.704 10.5,10.5 0,5.796 -4.704,10.5 -10.5,10.5 -5.796,0 -10.5,-4.704 -10.5,-10.5 0,-5.796 4.704,-10.5 10.5,-10.5 z"
           style="opacity:0.5;fill:#ffffff" /><path
           id="path3418"
           d="m 178,196.695 c -11.208,0 -20.305,9.0966 -20.305,20.305 0,11.2084 9.0966,20.305 20.305,20.305 11.2084,0 20.305,-9.0966 20.305,-20.305 0,-11.2084 -9.0966,-20.305 -20.305,-20.305 z m 0,10.152 c 5.6041,0 10.152,4.5483 10.152,10.152 0,5.6037 -4.5483,10.152 -10.152,10.152 -5.6037,0 -10.152,-4.5483 -10.152,-10.152 0,-5.6037 4.5483,-10.152 10.152,-10.152 z"
           style="fill:none;stroke:url(#linearGradient2654);stroke-linejoin:round" /><g
           id="g3527"
           transform="matrix(2.732,0,0,2.732,112.9099,151.9257)"><path
             id="path3296"
             transform="matrix(0.9996,0.028243,-0.028243,0.9996,0.69241,-0.67083)"
             d="m 15.857,5.7308 4.7681,10.613 c 1.0354,-0.45856 2.1703,-0.71875 3.375,-0.71875 0.03206,0 0.06178,-3.6e-4 0.09375,0 l 0.01426,-11.62 c -2.9422,-0.070687 -5.543,0.65729 -8.2511,1.726 h 10e-7 z"
             style="opacity:0.8;fill:url(#linearGradient3)" /><path
             id="path3308"
             d="m 12.121,7.906 6.931,9.3601 c 0.91311,-0.66976 1.9659,-1.1671 3.1426,-1.4252 0.03132,-0.0069 0.06026,-0.01359 0.09157,-0.02009 l -2.4295,-11.395 c -2.889,0.56132 -5.3195,1.8556 -7.7357,3.4797 z"
             style="opacity:0.8;fill:url(#linearGradient4)" /><path
             id="path3310"
             d="m 8.2524,11.647 9.2137,7.1558 c 0.70865,-0.88326 1.5969,-1.6361 2.6667,-2.19 0.02847,-0.01474 0.05469,-0.02872 0.08325,-0.0431 l -5.3502,-10.319 c -2.6453,1.2899 -4.7,3.2018 -6.6135,5.3959 z"
             style="opacity:0.8;fill:url(#linearGradient5)" /><path
             id="path3312"
             d="m 5.6329,16.074 c 7.1748,2.2422 7.8503,7.0315 12.777,1.7541 l -7.9097,-8.696 c -2.2213,1.9306 -3.5867,4.3272 -4.8671,6.9418 z"
             style="opacity:0.8;fill:url(#linearGradient6)" /><path
             id="path3314"
             d="m 7.1553,13.193 c -1.1831,1.752 -1.9077,3.6364 -2.5251,5.6439 l 11.339,2.9754 c 0.21551,-0.763 0.51805,-1.5148 0.96875,-2.2188 0.01729,-0.027 0.04496,-0.06702 0.0625,-0.09375 l -9.8447,-6.3068 z"
             style="opacity:0.8;fill:url(#linearGradient7)" /></g><path
           id="path3272"
           d="m 178,162.5 c -30.209,0 -54.5,24.291 -54.5,54.5 0,30.209 24.291,54.5 54.5,54.5 30.209,0 54.5,-24.291 54.5,-54.5 0,-30.209 -24.291,-54.5 -54.5,-54.5 z"
           style="opacity:0.5;fill:none;stroke:url(#linearGradient2642)" /><g
           id="g3297"
           transform="matrix(-2.7073,0,0,-2.7073,242.98,281.95)"><path
             id="path3299"
             transform="matrix(0.9996,0.028243,-0.028243,0.9996,0.69241,-0.67083)"
             d="m 15.857,5.7308 4.7681,10.613 c 1.0354,-0.45856 2.1703,-0.71875 3.375,-0.71875 0.03206,0 0.06178,-3.6e-4 0.09375,0 l 0.01426,-11.62 c -2.9422,-0.070687 -5.543,0.65729 -8.2511,1.726 h 10e-7 z"
             style="opacity:0.8;fill:url(#linearGradient2672)" /><path
             id="path3301"
             d="m 12.121,7.906 6.931,9.3601 c 0.91311,-0.66976 1.9659,-1.1671 3.1426,-1.4252 0.03132,-0.0069 0.06026,-0.01359 0.09157,-0.02009 l -2.4295,-11.395 c -2.889,0.56132 -5.3195,1.8556 -7.7357,3.4797 z"
             style="opacity:0.8;fill:url(#linearGradient2674)" /><path
             id="path3303"
             d="m 8.2524,11.647 9.2137,7.1558 c 0.70865,-0.88326 1.5969,-1.6361 2.6667,-2.19 0.02847,-0.01474 0.05469,-0.02872 0.08325,-0.0431 l -5.3502,-10.319 c -2.6453,1.2899 -4.7,3.2018 -6.6135,5.3959 z"
             style="opacity:0.8;fill:url(#linearGradient2676)" /><path
             id="path3305"
             d="m 5.6329,16.074 c 7.1748,2.2422 7.8503,7.0315 12.777,1.7541 l -7.9097,-8.696 c -2.2213,1.9306 -3.5867,4.3272 -4.8671,6.9418 z"
             style="opacity:0.8;fill:url(#linearGradient2678)" /><path
             id="path3307"
             d="m 7.1553,13.193 c -1.1831,1.752 -1.9077,3.6364 -2.5251,5.6439 l 11.339,2.9754 c 0.21551,-0.763 0.51805,-1.5148 0.96875,-2.2188 0.01729,-0.027 0.04496,-0.06702 0.0625,-0.09375 l -9.8447,-6.3068 z"
             style="opacity:0.8;fill:url(#linearGradient2680)" /></g><path
           id="path3281"
           d="m 178,195.5 c -11.917,0 -21.5,9.5829 -21.5,21.5 0,11.9171 9.5829,21.5 21.5,21.5 11.917,0 21.5,-9.5829 21.5,-21.5 0,-11.9171 -9.5829,-21.5 -21.5,-21.5 z"
           style="opacity:0.8;fill:none;stroke:url(#linearGradient2651)" /></g><path
         style="color:#232629;display:inline;fill:url(#linearGradient10);fill-opacity:1;stroke:none;stroke-width:3.94654;stroke-dasharray:none;enable-background:new"
         d="m 79.019108,203.77009 -0.287254,6.9909 v 4.94392 3.94601 15.78402 10.41991 c -2.167575,-1.62345 -4.977618,-2.52355 -7.892008,-2.5279 -6.537953,0 -11.838012,4.41671 -11.838012,9.86501 0,5.44829 5.300059,9.86501 11.838012,9.86501 6.537953,0 11.838012,-4.41672 11.838012,-9.86501 v -17.75702 -18.73851 c 5.816165,0.99423 12.551821,8.78341 15.784017,11.81034 v -2.93684 -1.973 l -0.459605,-3.1444 -0.299502,-4.39463 -3.090085,-3.40376 c -5.469829,-4.62144 -7.815256,-8.88405 -15.593575,-8.88405 z m 15.496763,16.45886 c -3.402301,-2.0217 -7.465888,-3.58559 -11.838013,-4.20804 z m -15.784017,32.96301 c -78.68496439,-81.09855 -78.68496439,-81.09855 0,0 z"
         class="ColorScheme-Text"
         id="path1-5"
         inkscape:label="songrec_music_note_full"
         sodipodi:nodetypes="cccccccsssccccccccccccss" /><path
         style="color:#232629;display:none;fill:currentColor;fill-opacity:1;stroke:none;stroke-width:3.94654;stroke-dasharray:none;enable-background:new"
         d="m 78.684964,199.82749 v 3.94601 11.838 3.94601 15.78402 10.41991 c -2.167575,-1.62345 -4.977618,-2.52355 -7.892008,-2.5279 -6.537953,0 -11.838012,4.41671 -11.838012,9.86501 0,5.44829 5.300059,9.86501 11.838012,9.86501 6.537953,0 11.838012,-4.41672 11.838012,-9.86501 v -17.75702 -15.40637 c 5.816165,0.99423 12.551821,5.45127 15.784017,8.4782 v -2.93684 -1.973 -0.61657 -13.19444 -2.58958 c -4.780422,-3.93204 -11.951702,-7.27544 -19.730021,-7.27544 z m 3.946004,4.32365 c 4.469927,0.7641 8.660466,2.68347 11.838013,4.91709 v 11.06731 c -3.402301,-2.0217 -7.465888,-3.58559 -11.838013,-4.20804 z m -11.838012,43.02841 c 4.358634,0 7.892008,2.65002 7.892008,5.919 0,3.26897 -3.533374,5.91901 -7.892008,5.91901 -4.358636,0 -7.892009,-2.65004 -7.892009,-5.91901 0,-3.26898 3.533373,-5.919 7.892009,-5.919 z"
         class="ColorScheme-Text"
         id="path1"
         inkscape:label="songrec_music_note" /></g></g></svg>
